<svg xmlns="http://www.w3.org/2000/svg" version="1.1" xmlns:xlink="http://www.w3.org/1999/xlink" xmlns:svgjs="http://svgjs.dev/svgjs" width="2000" height="1247" viewBox="0 0 2000 1247"><g transform="matrix(1,0,0,1,-1.2121212121212466,0.504858299595071)"><svg viewBox="0 0 396 247" data-background-color="#0b022d" preserveAspectRatio="xMidYMid meet" height="1247" width="2000" xmlns="http://www.w3.org/2000/svg" xmlns:xlink="http://www.w3.org/1999/xlink"><g id="tight-bounds" transform="matrix(1,0,0,1,0.2400000000000091,-0.09999999999999432)"><svg viewBox="0 0 395.52 247.2" height="247.2" width="395.52"><g><svg></svg></g><g><svg viewBox="0 0 395.52 247.2" height="247.2" width="395.52"><mask id="fffb3400-c720-49ae-8709-4197d47c516e"><rect width="640" height="400" fill="white"></rect><g transform="matrix(1,0,0,1,39.55199999999999,84.53114733979007)"><svg viewBox="0 0 316.416 78.13770532041985" height="78.13770532041985" width="316.416"><g><svg viewBox="0 0 316.416 78.13770532041985" height="78.13770532041985" width="316.416"><g><svg viewBox="0 0 316.416 78.13770532041985" height="78.13770532041985" width="316.416"><g><svg viewBox="0 0 316.416 78.13770532041985" height="78.13770532041985" width="316.416"><g id="SvgjsG1002"><svg viewBox="0 0 316.416 78.13770532041985" height="78.13770532041985" width="316.416" id="SvgjsSvg1001"><g><svg viewBox="0 0 316.416 78.13770532041985" height="78.13770532041985" width="316.416"><g transform="matrix(1,0,0,1,0,0)"><svg width="316.416" viewBox="-0.75 -41.7 222.51 55.71" height="78.13770532041985" data-palette-color="#f7fff7"><path d="M17.26-28L10.25-28 10.25-13.99 17.26-13.99Q18.7-13.99 19.97-14.54 21.24-15.09 22.19-16.04 23.14-16.99 23.69-18.27 24.24-19.56 24.24-21L24.24-21Q24.24-22.44 23.69-23.72 23.14-25 22.19-25.95 21.24-26.9 19.97-27.45 18.7-28 17.26-28L17.26-28ZM10.25-7.01L10.25 0 3.25 0 3.25-35.01 17.26-35.01Q19.19-35.01 20.97-34.51 22.75-34.01 24.3-33.09 25.85-32.18 27.14-30.9 28.42-29.61 29.33-28.05 30.25-26.49 30.75-24.71 31.25-22.92 31.25-21L31.25-21Q31.25-19.19 30.8-17.48 30.35-15.77 29.5-14.23 28.66-12.7 27.44-11.4 26.22-10.11 24.71-9.16L24.71-9.16 28.59 0 21.14 0 18.09-7.06 10.25-7.01ZM56.54 0L54.34-3.05Q53.54-2.32 52.62-1.67 51.71-1.03 50.71-0.55 49.7-0.07 48.64 0.21 47.58 0.49 46.48 0.49L46.48 0.49Q44.06 0.49 41.94-0.37 39.82-1.22 38.22-2.8 36.62-4.37 35.7-6.63 34.79-8.89 34.79-11.69L34.79-11.69 34.79-26.15 41.43-26.15 41.43-11.69Q41.43-10.38 41.83-9.34 42.23-8.3 42.92-7.59 43.6-6.88 44.52-6.52 45.43-6.15 46.48-6.15L46.48-6.15Q47.51-6.15 48.42-6.63 49.34-7.1 50.02-7.89 50.71-8.67 51.1-9.66 51.49-10.64 51.49-11.69L51.49-11.69 51.49-26.15 58.15-26.15 58.15 0 56.54 0ZM69.94-1.76L69.94 9.96 63.23 9.96 63.23-26.15 64.84-26.15 67.5-23Q68.4-23.85 69.48-24.61 70.55-25.37 71.71-25.92 72.87-26.46 74.12-26.78 75.36-27.1 76.63-27.1L76.63-27.1Q79.39-27.1 81.82-26.11 84.25-25.12 86.07-23.32 87.89-21.51 88.94-18.96 89.99-16.41 89.99-13.31L89.99-13.31Q89.99-10.08 88.94-7.51 87.89-4.93 86.07-3.14 84.25-1.34 81.82-0.39 79.39 0.56 76.63 0.56L76.63 0.56Q75.75 0.56 74.89 0.37 74.02 0.17 73.18-0.16 72.33-0.49 71.52-0.9 70.7-1.32 69.94-1.76L69.94-1.76ZM83.3-13.31L83.3-13.31Q83.3-14.97 82.77-16.28 82.25-17.6 81.34-18.52 80.44-19.43 79.22-19.92 78-20.41 76.63-20.41L76.63-20.41Q75.26-20.41 74.06-19.92 72.85-19.43 71.94-18.52 71.04-17.6 70.52-16.28 69.99-14.97 69.99-13.31L69.99-13.31Q69.99-11.72 70.52-10.4 71.04-9.08 71.94-8.15 72.85-7.23 74.06-6.71 75.26-6.2 76.63-6.2L76.63-6.2Q78-6.2 79.22-6.71 80.44-7.23 81.34-8.15 82.25-9.08 82.77-10.4 83.3-11.72 83.3-13.31ZM118.99-26.1L118.99 0 117.38 0 114.79-3.59Q113.84-2.73 112.77-1.99 111.71-1.25 110.54-0.7 109.37-0.15 108.13 0.17 106.9 0.49 105.63 0.49L105.63 0.49Q102.87 0.49 100.44-0.44 98.01-1.37 96.2-3.14 94.38-4.91 93.33-7.47 92.28-10.03 92.28-13.31L92.28-13.31Q92.28-16.36 93.33-18.91 94.38-21.46 96.2-23.29 98.01-25.12 100.44-26.14 102.87-27.15 105.63-27.15L105.63-27.15Q106.9-27.15 108.15-26.83 109.39-26.51 110.56-25.95 111.74-25.39 112.8-24.63 113.86-23.88 114.79-23L114.79-23 117.38-26.1 118.99-26.1ZM112.27-13.31L112.27-13.31Q112.27-14.67 111.75-15.95 111.22-17.24 110.32-18.23 109.42-19.21 108.21-19.81 107-20.41 105.63-20.41L105.63-20.41Q104.26-20.41 103.06-19.95 101.85-19.48 100.96-18.58 100.07-17.68 99.55-16.35 99.04-15.01 99.04-13.31L99.04-13.31Q99.04-11.6 99.55-10.27 100.07-8.94 100.96-8.03 101.85-7.13 103.06-6.67 104.26-6.2 105.63-6.2L105.63-6.2Q107-6.2 108.21-6.8 109.42-7.4 110.32-8.39 111.22-9.38 111.75-10.66 112.27-11.94 112.27-13.31ZM131.92-33.25L131.92-33.25Q131.92-32.32 131.57-31.52 131.22-30.71 130.61-30.11 129.99-29.52 129.18-29.16 128.36-28.81 127.43-28.81L127.43-28.81Q126.5-28.81 125.69-29.16 124.87-29.52 124.27-30.11 123.67-30.71 123.32-31.52 122.96-32.32 122.96-33.25L122.96-33.25Q122.96-34.16 123.32-34.97 123.67-35.79 124.27-36.39 124.87-36.99 125.69-37.34 126.5-37.7 127.43-37.7L127.43-37.7Q128.36-37.7 129.18-37.34 129.99-36.99 130.61-36.39 131.22-35.79 131.57-34.97 131.92-34.16 131.92-33.25ZM130.78-26.15L130.78 0 124.06 0 124.06-26.15 130.78-26.15ZM145.57 10.01L142.15 9.96 142.15 3.25 145.86 3.3Q146.84 3.3 147.74 2.98 148.64 2.66 149.41 2.1 150.18 1.54 150.77 0.77 151.35 0 151.72-0.9L151.72-0.9Q150.62-0.44 149.49 0.02 148.35 0.49 147.2 0.49L147.2 0.49Q144.79 0.49 142.66-0.37 140.54-1.22 138.94-2.8 137.34-4.37 136.43-6.63 135.51-8.89 135.51-11.69L135.51-11.69 135.51-26.15 142.15-26.15 142.15-11.69Q142.15-10.3 142.55-9.27 142.96-8.23 143.64-7.53 144.32-6.84 145.24-6.49 146.15-6.15 147.2-6.15L147.2-6.15Q148.23-6.15 149.15-6.63 150.06-7.1 150.74-7.89 151.43-8.67 151.82-9.66 152.21-10.64 152.21-11.69L152.21-11.69 152.21-26.15 158.92-26.15 158.92-3.3Q158.9-0.54 157.85 1.88 156.8 4.3 154.98 6.1 153.16 7.91 150.74 8.96 148.33 10.01 145.57 10.01L145.57 10.01ZM189.32-26.1L189.32 0 187.7 0 185.12-3.59Q184.16-2.73 183.1-1.99 182.04-1.25 180.87-0.7 179.7-0.15 178.46 0.17 177.23 0.49 175.96 0.49L175.96 0.49Q173.2 0.49 170.77-0.44 168.34-1.37 166.53-3.14 164.71-4.91 163.66-7.47 162.61-10.03 162.61-13.31L162.61-13.31Q162.61-16.36 163.66-18.91 164.71-21.46 166.53-23.29 168.34-25.12 170.77-26.14 173.2-27.15 175.96-27.15L175.96-27.15Q177.23-27.15 178.48-26.83 179.72-26.51 180.89-25.95 182.07-25.39 183.13-24.63 184.19-23.88 185.12-23L185.12-23 187.7-26.1 189.32-26.1ZM182.6-13.31L182.6-13.31Q182.6-14.67 182.08-15.95 181.55-17.24 180.65-18.23 179.75-19.21 178.54-19.81 177.33-20.41 175.96-20.41L175.96-20.41Q174.59-20.41 173.39-19.95 172.18-19.48 171.29-18.58 170.4-17.68 169.88-16.35 169.37-15.01 169.37-13.31L169.37-13.31Q169.37-11.6 169.88-10.27 170.4-8.94 171.29-8.03 172.18-7.13 173.39-6.67 174.59-6.2 175.96-6.2L175.96-6.2Q177.33-6.2 178.54-6.8 179.75-7.4 180.65-8.39 181.55-9.38 182.08-10.66 182.6-11.94 182.6-13.31ZM201.06-14.94L201.06 0 194.39 0 194.39-26.15 196-26.15 198.2-23.61Q199.81-25.07 201.85-25.87 203.89-26.66 206.11-26.66L206.11-26.66Q208.5-26.66 210.63-25.74 212.75-24.83 214.34-23.23 215.92-21.63 216.84-19.49 217.76-17.36 217.76-14.94L217.76-14.94 217.76 0 211.09 0 211.09-14.94Q211.09-15.97 210.7-16.88 210.31-17.8 209.63-18.48 208.94-19.17 208.04-19.56 207.14-19.95 206.11-19.95L206.11-19.95Q205.06-19.95 204.13-19.56 203.21-19.17 202.52-18.48 201.84-17.8 201.45-16.88 201.06-15.97 201.06-14.94L201.06-14.94Z" opacity="1" transform="matrix(1,0,0,1,0,0)" fill="black" class="wordmark-text-0" id="SvgjsPath1000" stroke-width="7" stroke="black" stroke-linejoin="round"></path></svg></g></svg></g></svg></g></svg></g></svg></g></svg></g></svg></g></mask><g transform="matrix(1,0,0,1,39.55199999999999,84.53114733979007)"><svg viewBox="0 0 316.416 78.13770532041985" height="78.13770532041985" width="316.416"><g><svg viewBox="0 0 316.416 78.13770532041985" height="78.13770532041985" width="316.416"><g><svg viewBox="0 0 316.416 78.13770532041985" height="78.13770532041985" width="316.416"><g><svg viewBox="0 0 316.416 78.13770532041985" height="78.13770532041985" width="316.416"><g id="textblocktransform"><svg viewBox="0 0 316.416 78.13770532041985" height="78.13770532041985" width="316.416" id="textblock"><g><svg viewBox="0 0 316.416 78.13770532041985" height="78.13770532041985" width="316.416"><g transform="matrix(1,0,0,1,0,0)"><svg width="316.416" viewBox="-0.75 -41.7 222.51 55.71" height="78.13770532041985" data-palette-color="#f7fff7"><path d="M17.26-28L10.25-28 10.25-13.99 17.26-13.99Q18.7-13.99 19.97-14.54 21.24-15.09 22.19-16.04 23.14-16.99 23.69-18.27 24.24-19.56 24.24-21L24.24-21Q24.24-22.44 23.69-23.72 23.14-25 22.19-25.95 21.24-26.9 19.97-27.45 18.7-28 17.26-28L17.26-28ZM10.25-7.01L10.25 0 3.25 0 3.25-35.01 17.26-35.01Q19.19-35.01 20.97-34.51 22.75-34.01 24.3-33.09 25.85-32.18 27.14-30.9 28.42-29.61 29.33-28.05 30.25-26.49 30.75-24.71 31.25-22.92 31.25-21L31.25-21Q31.25-19.19 30.8-17.48 30.35-15.77 29.5-14.23 28.66-12.7 27.44-11.4 26.22-10.11 24.71-9.16L24.71-9.16 28.59 0 21.14 0 18.09-7.06 10.25-7.01ZM56.54 0L54.34-3.05Q53.54-2.32 52.62-1.67 51.71-1.03 50.71-0.55 49.7-0.07 48.64 0.21 47.58 0.49 46.48 0.49L46.48 0.49Q44.06 0.49 41.94-0.37 39.82-1.22 38.22-2.8 36.62-4.37 35.7-6.63 34.79-8.89 34.79-11.69L34.79-11.69 34.79-26.15 41.43-26.15 41.43-11.69Q41.43-10.38 41.83-9.34 42.23-8.3 42.92-7.59 43.6-6.88 44.52-6.52 45.43-6.15 46.48-6.15L46.48-6.15Q47.51-6.15 48.42-6.63 49.34-7.1 50.02-7.89 50.71-8.67 51.1-9.66 51.49-10.64 51.49-11.69L51.49-11.69 51.49-26.15 58.15-26.15 58.15 0 56.54 0ZM69.94-1.76L69.94 9.96 63.23 9.96 63.23-26.15 64.84-26.15 67.5-23Q68.4-23.85 69.48-24.61 70.55-25.37 71.71-25.92 72.87-26.46 74.12-26.78 75.36-27.1 76.63-27.1L76.63-27.1Q79.39-27.1 81.82-26.11 84.25-25.12 86.07-23.32 87.89-21.51 88.94-18.96 89.99-16.41 89.99-13.31L89.99-13.31Q89.99-10.08 88.94-7.51 87.89-4.93 86.07-3.14 84.25-1.34 81.82-0.39 79.39 0.56 76.63 0.56L76.63 0.56Q75.75 0.56 74.89 0.37 74.02 0.17 73.18-0.16 72.33-0.49 71.52-0.9 70.7-1.32 69.94-1.76L69.94-1.76ZM83.3-13.31L83.3-13.31Q83.3-14.97 82.77-16.28 82.25-17.6 81.34-18.52 80.44-19.43 79.22-19.92 78-20.41 76.63-20.41L76.63-20.41Q75.26-20.41 74.06-19.92 72.85-19.43 71.94-18.52 71.04-17.6 70.52-16.28 69.99-14.97 69.99-13.31L69.99-13.31Q69.99-11.72 70.52-10.4 71.04-9.08 71.94-8.15 72.85-7.23 74.06-6.71 75.26-6.2 76.63-6.2L76.63-6.2Q78-6.2 79.22-6.71 80.44-7.23 81.34-8.15 82.25-9.08 82.77-10.4 83.3-11.72 83.3-13.31ZM118.99-26.1L118.99 0 117.38 0 114.79-3.59Q113.84-2.73 112.77-1.99 111.71-1.25 110.54-0.7 109.37-0.15 108.13 0.17 106.9 0.49 105.63 0.49L105.63 0.49Q102.87 0.49 100.44-0.44 98.01-1.37 96.2-3.14 94.38-4.91 93.33-7.47 92.28-10.03 92.28-13.31L92.28-13.31Q92.28-16.36 93.33-18.91 94.38-21.46 96.2-23.29 98.01-25.12 100.44-26.14 102.87-27.15 105.63-27.15L105.63-27.15Q106.9-27.15 108.15-26.83 109.39-26.51 110.56-25.95 111.74-25.39 112.8-24.63 113.86-23.88 114.79-23L114.79-23 117.38-26.1 118.99-26.1ZM112.27-13.31L112.27-13.31Q112.27-14.67 111.75-15.95 111.22-17.24 110.32-18.23 109.42-19.21 108.21-19.81 107-20.41 105.63-20.41L105.63-20.41Q104.26-20.41 103.06-19.95 101.85-19.48 100.96-18.58 100.07-17.68 99.55-16.35 99.04-15.01 99.04-13.31L99.04-13.31Q99.04-11.6 99.55-10.27 100.07-8.94 100.96-8.03 101.85-7.13 103.06-6.67 104.26-6.2 105.63-6.2L105.63-6.2Q107-6.2 108.21-6.8 109.42-7.4 110.32-8.39 111.22-9.38 111.75-10.66 112.27-11.94 112.27-13.31ZM131.92-33.25L131.92-33.25Q131.92-32.32 131.57-31.52 131.22-30.71 130.61-30.11 129.99-29.52 129.18-29.16 128.36-28.81 127.43-28.81L127.43-28.81Q126.5-28.81 125.69-29.16 124.87-29.52 124.27-30.11 123.67-30.71 123.32-31.52 122.96-32.32 122.96-33.25L122.96-33.25Q122.96-34.16 123.32-34.97 123.67-35.79 124.27-36.39 124.87-36.99 125.69-37.34 126.5-37.7 127.43-37.7L127.43-37.7Q128.36-37.7 129.18-37.34 129.99-36.99 130.61-36.39 131.22-35.79 131.57-34.97 131.92-34.16 131.92-33.25ZM130.78-26.15L130.78 0 124.06 0 124.06-26.15 130.78-26.15ZM145.57 10.01L142.15 9.96 142.15 3.25 145.86 3.3Q146.84 3.3 147.74 2.98 148.64 2.66 149.41 2.1 150.18 1.54 150.77 0.77 151.35 0 151.72-0.9L151.72-0.9Q150.62-0.44 149.49 0.02 148.35 0.49 147.2 0.49L147.2 0.49Q144.79 0.49 142.66-0.37 140.54-1.22 138.94-2.8 137.34-4.37 136.43-6.63 135.51-8.89 135.51-11.69L135.51-11.69 135.51-26.15 142.15-26.15 142.15-11.69Q142.15-10.3 142.55-9.27 142.96-8.23 143.64-7.53 144.32-6.84 145.24-6.49 146.15-6.15 147.2-6.15L147.2-6.15Q148.23-6.15 149.15-6.63 150.06-7.1 150.74-7.89 151.43-8.67 151.82-9.66 152.21-10.64 152.21-11.69L152.21-11.69 152.21-26.15 158.92-26.15 158.92-3.3Q158.9-0.54 157.85 1.88 156.8 4.3 154.98 6.1 153.16 7.91 150.74 8.96 148.33 10.01 145.57 10.01L145.57 10.01ZM189.32-26.1L189.32 0 187.7 0 185.12-3.59Q184.16-2.73 183.1-1.99 182.04-1.25 180.87-0.7 179.7-0.15 178.46 0.17 177.23 0.49 175.96 0.49L175.96 0.49Q173.2 0.49 170.77-0.44 168.34-1.37 166.53-3.14 164.71-4.91 163.66-7.47 162.61-10.03 162.61-13.31L162.61-13.31Q162.61-16.36 163.66-18.91 164.71-21.46 166.53-23.29 168.34-25.12 170.77-26.14 173.2-27.15 175.96-27.15L175.96-27.15Q177.23-27.15 178.48-26.83 179.72-26.51 180.89-25.95 182.07-25.39 183.13-24.63 184.19-23.88 185.12-23L185.12-23 187.7-26.1 189.32-26.1ZM182.6-13.31L182.6-13.31Q182.6-14.67 182.08-15.95 181.55-17.24 180.65-18.23 179.75-19.21 178.54-19.81 177.33-20.41 175.96-20.41L175.96-20.41Q174.59-20.41 173.39-19.95 172.18-19.48 171.29-18.58 170.4-17.68 169.88-16.35 169.37-15.01 169.37-13.31L169.37-13.31Q169.37-11.6 169.88-10.27 170.4-8.94 171.29-8.03 172.18-7.13 173.39-6.67 174.59-6.2 175.96-6.2L175.96-6.2Q177.33-6.2 178.54-6.8 179.75-7.4 180.65-8.39 181.55-9.38 182.08-10.66 182.6-11.94 182.6-13.31ZM201.06-14.94L201.06 0 194.39 0 194.39-26.15 196-26.15 198.2-23.61Q199.81-25.07 201.85-25.87 203.89-26.66 206.11-26.66L206.11-26.66Q208.5-26.66 210.63-25.74 212.75-24.83 214.34-23.23 215.92-21.63 216.84-19.49 217.76-17.36 217.76-14.94L217.76-14.94 217.76 0 211.09 0 211.09-14.94Q211.09-15.97 210.7-16.88 210.31-17.8 209.63-18.48 208.94-19.17 208.04-19.56 207.14-19.95 206.11-19.95L206.11-19.95Q205.06-19.95 204.13-19.56 203.21-19.17 202.52-18.48 201.84-17.8 201.45-16.88 201.06-15.97 201.06-14.94L201.06-14.94Z" opacity="1" transform="matrix(1,0,0,1,0,0)" fill="#000000" class="wordmark-text-0" data-fill-palette-color="primary" id="text-0"></path></svg></g></svg></g></svg></g></svg></g></svg></g></svg></g></svg></g><g mask="url(#fffb3400-c720-49ae-8709-4197d47c516e)"><g transform="matrix(2.7004405286343607, 0, 0, 2.7004405286343607, 75.16, 1)"><svg xmlns="http://www.w3.org/2000/svg" xmlns:xlink="http://www.w3.org/1999/xlink" version="1.1" x="0" y="0" viewBox="4.6 4.6 90.80000000000001 90.80000000000001" enable-background="new 0 0 100 100" xml:space="preserve" height="90.80000000000001" width="90.80000000000001" class="icon-none" data-fill-palette-color="accent" id="none"><path d="M50 69.7c-0.7 0-1.2 0.5-1.2 1.2v8.8c-3.8 0.6-6.6 3.8-6.6 7.8 0 4.3 3.5 7.9 7.9 7.9s7.9-3.5 7.9-7.9c0-3.9-2.9-7.2-6.6-7.8V71C51.2 70.3 50.7 69.7 50 69.7zM55.4 87.6c0 3-2.4 5.4-5.4 5.4-3 0-5.4-2.4-5.4-5.4 0-3 2.4-5.4 5.4-5.4C53 82.1 55.4 84.6 55.4 87.6zM50 30.3c0.7 0 1.2-0.5 1.2-1.2v-8.8c3.8-0.6 6.6-3.8 6.6-7.8 0-4.3-3.5-7.9-7.9-7.9-4.3 0-7.9 3.5-7.9 7.9 0 3.9 2.9 7.2 6.6 7.8V29C48.8 29.7 49.3 30.3 50 30.3zM44.6 12.4C44.6 9.5 47 7 50 7s5.4 2.4 5.4 5.4c0 3-2.4 5.4-5.4 5.4 0 0 0 0 0 0s0 0 0 0C47 17.9 44.6 15.4 44.6 12.4zM95.4 50c0-4.3-3.5-7.9-7.9-7.9-3.9 0-7.2 2.9-7.8 6.6H71c-0.7 0-1.2 0.5-1.2 1.2s0.5 1.2 1.2 1.2h8.8c0.6 3.8 3.8 6.6 7.8 6.6C91.9 57.9 95.4 54.3 95.4 50zM82.1 50C82.1 50 82.1 50 82.1 50 82.1 50 82.1 50 82.1 50c0-3 2.4-5.4 5.4-5.4 3 0 5.4 2.4 5.4 5.4s-2.4 5.4-5.4 5.4C84.6 55.4 82.1 53 82.1 50zM4.6 50c0 4.3 3.5 7.9 7.9 7.9 3.9 0 7.2-2.9 7.8-6.6H29c0.7 0 1.2-0.5 1.2-1.2s-0.5-1.2-1.2-1.2h-8.8c-0.6-3.8-3.8-6.6-7.8-6.6C8.1 42.1 4.6 45.7 4.6 50zM17.9 50L17.9 50C17.9 50 17.9 50 17.9 50c0 3-2.4 5.4-5.4 5.4C9.5 55.4 7 53 7 50s2.4-5.4 5.4-5.4C15.4 44.6 17.9 47 17.9 50zM71 82.1c1.5 1.5 3.5 2.3 5.6 2.3 2.1 0 4.1-0.8 5.6-2.3 3.1-3.1 3.1-8.1 0-11.1-1.5-1.5-3.5-2.3-5.6-2.3-1.7 0-3.3 0.5-4.6 1.5L65.7 64c-0.5-0.5-1.3-0.5-1.7 0-0.5 0.5-0.5 1.3 0 1.7l6.2 6.2C68 75 68.2 79.3 71 82.1zM80.4 72.7c2.1 2.1 2.1 5.5 0 7.7-1 1-2.4 1.6-3.8 1.6-1.4 0-2.8-0.6-3.8-1.6-2.1-2.1-2.1-5.5 0-7.7l0 0 0 0c1-1 2.4-1.6 3.8-1.6C78 71.1 79.4 71.7 80.4 72.7zM29 17.9c-1.5-1.5-3.5-2.3-5.6-2.3-2.1 0-4.1 0.8-5.6 2.3-3.1 3.1-3.1 8.1 0 11.1 1.5 1.5 3.5 2.3 5.6 2.3 1.7 0 3.3-0.5 4.6-1.5l6.2 6.2c0.2 0.2 0.6 0.4 0.9 0.4s0.6-0.1 0.9-0.4c0.5-0.5 0.5-1.3 0-1.7l-6.2-6.2C32 25 31.8 20.7 29 17.9zM19.6 27.3c-2.1-2.1-2.1-5.5 0-7.7 1-1 2.4-1.6 3.8-1.6 1.4 0 2.8 0.6 3.8 1.6 2.1 2.1 2.1 5.5 0 7.7 0 0 0 0 0 0s0 0 0 0c-1 1-2.4 1.6-3.8 1.6C22 28.9 20.6 28.3 19.6 27.3zM64 36c0.2 0.2 0.6 0.4 0.9 0.4 0.3 0 0.6-0.1 0.9-0.4l6.2-6.2c1.3 1 2.9 1.5 4.6 1.5 2.1 0 4.1-0.8 5.6-2.3 3.1-3.1 3.1-8.1 0-11.1-1.5-1.5-3.5-2.3-5.6-2.3-2.1 0-4.1 0.8-5.6 2.3-2.8 2.8-3 7.1-0.8 10.2L64 34.3C63.5 34.8 63.5 35.6 64 36zM72.7 19.6c1-1 2.4-1.6 3.8-1.6 1.4 0 2.8 0.6 3.8 1.6 2.1 2.1 2.1 5.5 0 7.7-1 1-2.4 1.6-3.8 1.6-1.4 0-2.8-0.6-3.8-1.6l0 0 0 0C70.6 25.2 70.6 21.7 72.7 19.6zM36 64c-0.5-0.5-1.3-0.5-1.7 0l-6.2 6.2c-1.3-1-2.9-1.5-4.6-1.5-2.1 0-4.1 0.8-5.6 2.3-3.1 3.1-3.1 8.1 0 11.1 1.5 1.5 3.5 2.3 5.6 2.3 2.1 0 4.1-0.8 5.6-2.3 2.8-2.8 3-7.1 0.8-10.2l6.2-6.2C36.5 65.2 36.5 64.4 36 64zM27.3 80.4c-1 1-2.4 1.6-3.8 1.6-1.4 0-2.8-0.6-3.8-1.6-2.1-2.1-2.1-5.5 0-7.7 1-1 2.4-1.6 3.8-1.6 1.4 0 2.8 0.6 3.8 1.6 0 0 0 0 0 0 0 0 0 0 0 0C29.4 74.8 29.4 78.3 27.3 80.4zM63.5 50c0-7.5-6.1-13.5-13.5-13.5S36.5 42.5 36.5 50 42.5 63.5 50 63.5 63.5 57.5 63.5 50zM50 61.1c-6.1 0-11.1-5-11.1-11.1s5-11.1 11.1-11.1 11.1 5 11.1 11.1S56.1 61.1 50 61.1z" fill="#000000" data-fill-palette-color="accent"></path></svg></g></g></svg></g><defs></defs></svg><rect width="395.52" height="247.2" fill="none" stroke="none" visibility="hidden"></rect></g></svg></g></svg>